<?xml version="1.0" encoding="UTF-8"?>
<svg width="48" height="48" version="1.1" viewBox="0 0 48.000001 48.000001" xmlns="http://www.w3.org/2000/svg" xmlns:cc="http://creativecommons.org/ns#" xmlns:dc="http://purl.org/dc/elements/1.1/" xmlns:rdf="http://www.w3.org/1999/02/22-rdf-syntax-ns#">
<g transform="translate(0 -1004.4)">
<g transform="matrix(3.5433 0 0 3.5433 -251.22 856.77)">
<path d="m74.775 42.359 4.6261-0.29095 2.6186 3.1714-0.08729 1.833-1.7748 3.2587-0.20366 0.14547-4.5098 0.23276-2.7349-3.1132 0.11638-1.7457z" fill="#fa0" fill-opacity=".94118" fill-rule="evenodd"/>
<path transform="scale(.28222 .28222)" d="m264.87 177.6c-0.50725 0.63963-0.38159 1.5712-0.37492 2.352 0.23933 2.9179 2.6948 5.1584 5.3132 6.1267 3.1183 1.2311 6.8664 0.72237 9.5276-1.3147 1.3237-1.0906 2.3616-2.5781 2.6228-4.3004 0.11378-0.50069 0.38404-1.4222-0.40351-1.468-4.7678 0.21463-9.5212 0.62667-14.288 0.81428-0.70873-0.73041-1.2308-1.6837-2.0625-2.2672-0.11162 0.0191-0.22324 0.0383-0.33485 0.0574z" fill="#fa0" fill-opacity=".94118" fill-rule="evenodd"/>
<path transform="scale(.28222 .28222)" d="m264.47 182.2c-0.54124 0.45762-0.32626 1.2988-0.4451 1.9402-0.14427 1.6983 0.28822 3.4546 1.4016 4.7713 1.6321 2.0081 4.1687 3.2242 6.7302 3.4193 1.8207 0.10936 3.6824-0.14657 5.3038-1.0242 2.2284-1.0421 3.9262-3.2306 4.1129-5.7159 0.0113-0.69945 0.26332-1.4049 0.12726-2.0925-0.60352-0.63432-1.137 0.34857-1.5705 0.71085-1.7268 1.6803-4.2144 2.728-6.6699 2.5549-3.025 0.17398-6.1108-1.285-7.9338-3.72-0.28052-0.35482-0.4849-1.0152-1.0565-0.84388z" fill="#fa0" fill-opacity=".94118" fill-rule="evenodd"/>
<g fill="none" stroke="#000" stroke-linecap="round" stroke-linejoin="round" stroke-width=".28222">
<path d="m74.687 49.848-0.19492 2.2239"/>
<path d="m79.657 50.479-0.17499 1.9034"/>
<path d="m78.445 53.94c0.61632-0.35584 0.99785-0.92888 1.0369-1.5574"/>
<path d="m74.492 52.072c-0.10792 1.7349 2.2522 2.85 3.9534 1.8678"/>
<path d="m79.798 48.19a4 3.3169 3.5596 0 0 1.3105 -1.3041"/>
<path d="m77.862 48.76a4 3.3169 3.5596 0 0 1.9356 -0.56997"/>
<path d="m81.109 46.886a4 3.3169 3.5596 0 0 -0.39756 -3.3102"/>
<path d="m74.219 47.324a4 3.3169 3.5596 0 0 3.6436 1.4361"/>
<path d="m80.711 43.576a4 3.3169 3.5596 0 0 -3.6436 -1.436"/>
<path d="m73.821 44.014a4 3.3169 3.5596 0 0 0.3975 3.3101"/>
<path d="m77.067 42.14a4 3.3169 3.5596 0 0 -3.2461 1.8741"/>
<path d="m81.109 46.886-0.06457 0.11811-0.06481 0.11951-0.06504 0.12127-0.06542 0.1231-0.06592 0.12512-0.06646 0.1274-0.06717 0.12977-0.06795 0.13242-0.06885 0.13525-0.06985 0.13825-0.07095 0.14154-0.07216 0.14501-0.0735 0.14867-0.07493 0.15261"/>
<path d="m80.151 48.744-0.17737-0.0069-0.17418-0.0057-0.17129-0.0044-0.16866-0.0032-0.16626-0.0019-0.16415-7.21e-4 -0.16229 5.12e-4 -0.16065 0.0018-0.15931 0.0029-0.15815 0.0042-0.15728 0.0055-0.15664 0.0067-0.15619 0.0081-0.15607 0.0093"/>
<path d="m82.05 45.288-0.0726 0.11605-0.07145 0.11504-0.0702 0.1142-0.06925 0.11365-0.0683 0.1131-0.06742 0.11282-0.06675 0.11279-0.06608 0.11274-0.06566 0.11308-0.06515 0.11336-0.06488 0.11402-0.06466 0.11481-0.06452 0.11565-0.06449 0.11691"/>
<path d="m80.711 43.576 0.09157 0.10821 0.09157 0.1096 0.09185 0.11128 0.09209 0.11311 0.09261 0.115 0.09324 0.1173 0.09404 0.11949 0.09491 0.12199 0.09598 0.12484 0.09722 0.12758 0.09857 0.13073 0.10007 0.13413 0.10175 0.13744 0.1035 0.14128"/>
<path d="m75.558 49.036-0.10356-0.14124-0.1017-0.13747-0.10012-0.13411-0.09855-0.13074-0.09717-0.12761-0.09603-0.12481-0.09489-0.122-0.09401-0.11951-0.09328-0.11727-0.09259-0.11501-0.09214-0.11308-0.0918-0.11131-0.09156-0.1096-0.09155-0.10823"/>
<path d="m77.862 48.76-0.15619 0.0105-0.15645 0.01192-0.15705 0.01319-0.15783 0.01457-0.15886 0.01597-0.16018 0.01731-0.16171 0.01877-0.16352 0.02016-0.16554 0.02168-0.16782 0.02322-0.1704 0.02471-0.1732 0.02633-0.17627 0.02799-0.17965 0.02959"/>
<path d="m79.356 42.124 0.10578 0.10462 0.10386 0.10389 0.10203 0.10333 0.10034 0.1028 0.09867 0.1025 0.0974 0.1023 0.0962 0.10242 0.095 0.10254 0.09417 0.1029 0.09339 0.10335 0.09271 0.10398 0.09213 0.10477 0.09187 0.10573 0.09154 0.10696"/>
<path d="m77.067 42.14 0.15607-0.0093 0.15624-8e-3 0.1566-0.0068 0.15728-0.0055 0.15815-0.0042 0.15931-0.0029 0.16065-0.0018 0.1623-5.17e-4 0.16415 7.21e-4 0.16624 0.0019 0.16869 0.0032 0.17128 0.0045 0.17417 0.0057 0.17734 7e-3"/>
<path d="m72.864 45.872 0.07493-0.15261 0.0735-0.14867 0.07216-0.14501 0.07095-0.14154 0.06986-0.13825 0.06884-0.13524 0.06795-0.13242 0.06718-0.12978 0.06646-0.1274 0.06591-0.12512 0.06542-0.1231 0.06508-0.12118 0.06476-0.11961 0.06459-0.11812"/>
<path d="m74.219 47.324-0.09162-0.10691-0.09182-0.10576-0.09216-0.10475-0.09269-0.10399-0.09335-0.10337-0.09416-0.10291-0.09505-0.10251-0.09619-0.10243-0.09737-0.10232-0.09874-0.10246-0.1003-0.10282-0.10202-0.10333-0.10383-0.1039-0.1058-0.10461"/>
<path d="m74.763 42.416 0.17966-0.0296 0.17626-0.02798 0.1732-0.02633 0.1704-0.02471 0.16782-0.02322 0.16554-0.02168 0.16353-0.02016 0.1617-0.01877 0.16018-0.01731 0.15886-0.01597 0.15783-0.01457 0.15705-0.0132 0.1565-0.01183 0.15614-0.01059"/>
<path d="m73.821 44.014 0.06451-0.1168 0.0645-0.11576 0.06463-0.1148 0.06487-0.11401 0.0652-0.11339 0.06559-0.11304 0.06612-0.11277 0.06672-0.11277 0.06745-0.11284 0.0683-0.1131 0.06921-0.11363 0.07025-0.11423 0.07142-0.11502 0.07264-0.11607"/>
<path d="m81.944 46.999-1.8991 3.4562"/>
<path d="m81.944 46.999 0.1064-1.7109"/>
<path d="m80.045 50.455 0.10646-1.7108"/>
<path d="m80.045 50.455-4.5931 0.2921"/>
<path d="m75.451 50.747 0.10641-1.7109"/>
<path d="m75.451 50.747-2.6941-3.1642"/>
<path d="m72.757 47.583 0.10646-1.7108"/>
<g transform="translate(.12407 -1.5885)">
<path d="m78.445 53.94c0.61632-0.35584 0.99785-0.92888 1.0369-1.5574"/>
<path d="m74.492 52.072c-0.10792 1.7349 2.2522 2.85 3.9534 1.8678"/>
</g>
</g>
</g>
</g>
</svg>
